<svg id="Capa_1" enable-background="new 0 0 512 512" height="512" viewBox="0 0 512 512" width="512" xmlns="http://www.w3.org/2000/svg"><path d="m91.171 177.009h41.207v250.001h-41.207z" fill="#4e5660"/><path d="m91.171 177.009h20.604v250.001h-20.604z" fill="#383c43"/><path d="m140.428 512h-57.307c-6.497 0-11.372-5.941-10.104-12.313l18.153-91.221c11.713-10.542 29.494-10.542 41.207 0l18.153 91.221c1.27 6.372-3.605 12.313-10.102 12.313z" fill="#e8899e"/><path d="m93.621 499.688 18.153-99.127c-7.373 0-14.747 2.635-20.604 7.906l-18.153 91.221c-1.267 6.371 3.607 12.312 10.104 12.312h20.604c-6.497 0-11.372-5.941-10.104-12.312z" fill="#e26e7e"/><path d="m147.831 0h-72.113c-11.379 0-20.603 9.225-20.603 20.604v154.527h113.32v-154.527c0-11.379-9.225-20.604-20.604-20.604z" fill="#e8899e"/><path d="m116.926 0h-41.208c-11.379 0-20.603 9.225-20.603 20.604v154.527h41.207v-154.527c0-11.379 9.224-20.604 20.604-20.604z" fill="#e26e7e"/><path d="m168.435 195.734h-113.32c-11.379 0-20.604-9.225-20.604-20.604 0-11.379 9.225-20.604 20.604-20.604h113.32c11.379 0 20.604 9.225 20.604 20.604-.001 11.38-9.225 20.604-20.604 20.604z" fill="#e26e7e"/><path d="m75.718 175.131c0-11.379 9.225-20.604 20.604-20.604h-41.207c-11.379 0-20.604 9.225-20.604 20.604 0 11.379 9.225 20.604 20.604 20.604h41.207c-11.379-.001-20.604-9.225-20.604-20.604z" fill="#d66376"/><path d="m286.905 133.924h113.32v105.25h-113.32z" fill="#e26e7e"/><path d="m286.905 133.924h56.66v105.25h-56.66z" fill="#d66376"/><path d="m425.98 512h-164.829c-28.448 0-51.509-23.061-51.509-51.509v-103.215c0-56.731 15.742-112.349 45.475-160.665 3.75-6.093 10.392-9.805 17.547-9.805h141.803c7.155 0 13.797 3.712 17.547 9.805 29.733 48.315 45.475 103.934 45.475 160.665v103.215c0 28.448-23.061 51.509-51.509 51.509z" fill="#e8899e"/><path d="m281.755 460.491v-103.215c0-56.731 15.742-112.349 45.475-160.665 3.75-6.094 10.392-9.805 17.547-9.805h-72.113c-7.155 0-13.797 3.712-17.547 9.805-29.733 48.316-45.475 103.934-45.475 160.665v103.214c0 28.448 23.061 51.509 51.509 51.509h72.113c-28.448.001-51.509-23.06-51.509-51.508z" fill="#e26e7e"/><path d="m400.225 154.527h-113.32c-11.379 0-20.604-9.225-20.604-20.604 0-11.379 9.225-20.604 20.604-20.604h113.32c11.379 0 20.604 9.225 20.604 20.604 0 11.38-9.225 20.604-20.604 20.604z" fill="#e8899e"/><path d="m307.509 133.924c0-11.379 9.225-20.604 20.604-20.604h-41.207c-11.379 0-20.604 9.225-20.604 20.604 0 11.379 9.225 20.604 20.604 20.604h41.207c-11.379-.001-20.604-9.225-20.604-20.604z" fill="#e26e7e"/><circle cx="343.565" cy="349.403" fill="#ebfaff" r="92.716"/></svg>